<?xml version="1.0" encoding="utf-8"?>
<!-- Generator: Adobe Illustrator 21.0.2, SVG Export Plug-In . SVG Version: 6.00 Build 0)  -->
<svg version="1.1" id="Ebene_1" xmlns="http://www.w3.org/2000/svg" xmlns:xlink="http://www.w3.org/1999/xlink" x="0px" y="0px"
	 viewBox="0 0 595.3 101.7" style="enable-background:new 0 0 595.3 101.7;" xml:space="preserve">
<style type="text/css">
	.st0{fill:#FFFFFF;}
</style>
<g>
	<path class="st0" d="M60.4,1.4c1.4,0,2.7,1.3,2.7,2.7c0,1.6-1.3,2.8-2.7,2.8H34.3v92c0,1.7-1.3,2.8-2.8,2.8c-1.6,0-2.8-1.1-2.8-2.8
		v-92h-26C1.1,6.9,0,5.6,0,4.1c0-1.4,1.1-2.7,2.7-2.7H60.4z"/>
	<path class="st0" d="M150.4,1.4c17.5,0,26.7,12,26.7,27.1c0,15.1-9.3,24.5-23.3,25.5l24,42.7c0.4,0.7,0.7,1.6,0.7,2.1
		c0,1.6-1.3,2.8-2.8,2.8c-1,0-2-0.6-2.5-1.6l-25.5-45.7h-20.9v44.4c0,1.7-1.3,2.8-2.8,2.8c-1.6,0-2.8-1.1-2.8-2.8V5.2
		c0-2.1,1.8-3.8,3.9-3.8H150.4z M126.7,6.8v42.5h23.7c12.7,0,21.2-7.5,21.2-20.7c0-12.6-7.6-21.7-21.2-21.7H126.7z"/>
	<path class="st0" d="M407.5,2.3c0.4-1.4,1.4-2.3,2.8-2.3c1.6,0,2.7,1.3,2.7,2.5c0,0.6-0.1,1.1-0.4,2.1l-29.2,93.9
		c-0.6,2.1-2,3.1-3.8,3.1c-2,0-3.4-1-3.9-3.1L346.4,4.7c-0.3-1-0.4-1.6-0.4-2.1c0-1.3,1.1-2.5,2.7-2.5c1.4,0,2.4,0.8,2.8,2.3
		L379.6,93L407.5,2.3z"/>
	<path class="st0" d="M478.3,2.7v96.2c0,1.7-1.3,2.8-2.8,2.8c-1.6,0-2.8-1.1-2.8-2.8V2.7c0-1.6,1.3-2.7,2.8-2.7
		C477.1,0,478.3,1.1,478.3,2.7"/>
	<path class="st0" d="M590.3,4.2c1.7,0.7,2.3,1.6,2.3,2.8c0,1.6-1.1,2.5-2.4,2.5c-0.8,0-1.4-0.1-2.5-0.6c-6.9-2.5-12.6-3.7-19.9-3.7
		c-12.7,0-21,8.7-21,17.6c0,10,5.1,14.7,13.7,19.2l16.2,8.3c9.2,4.8,18.6,10.9,18.6,26.2c0,16.1-13.4,25-27.9,25
		c-9,0-16.5-1.8-24.3-5.2c-1.3-0.6-1.8-1.4-1.8-2.5c0-1.7,1-2.7,2.5-2.7c0.7,0,1.1,0.1,2.5,0.7c6.9,2.7,13.1,4.4,21,4.4
		c11.6,0,22.3-6.8,22.3-19.5c0-11.7-6.8-16.9-16.1-21.7l-16.1-8.3c-10.3-5.4-16.4-12-16.4-23.7c0-12.8,11.3-23.1,26.9-23.1
		C576.8,0,583.9,1.6,590.3,4.2"/>
	<path class="st0" d="M302.6,97.5L271,2.4c-0.4-1.6-1.8-2.4-3.4-2.4c-1.4,0-2.8,0.8-3.4,2.4L233,96.5c-0.4,1.1-0.7,2-0.7,2.5
		c0,1.6,1.3,2.7,2.8,2.7c1.1,0,2.3-0.6,2.7-2l9.2-28.4h30.4c1.4,0,2.6-1.2,2.6-2.6c0-1.4-1.2-2.6-2.6-2.6h-28.5l18.8-57.8l18.9,57.8
		l1.7,5.2l9.3,28.4c0.4,1.4,1.4,2,2.7,2c1.6,0,2.7-1.1,2.7-2.7C302.9,98.6,302.7,98,302.6,97.5"/>
</g>
</svg>
